<svg id="Layer_1" data-name="Layer 1" xmlns="http://www.w3.org/2000/svg" viewBox="0 0 292.86 142.9">
  <title>c4dc_logo_color</title>
  <g>
    <g>
      <g>
        <rect x="28.47" y="18.61" width="76.7" height="103.68" transform="translate(-15.72 19.31) rotate(-14.73)" fill="#00a4c6"/>
        <rect x="28.47" y="18.61" width="76.7" height="103.68" transform="translate(-8.86 9.61) rotate(-7.72)" fill="#0077a5"/>
        <g>
          <rect x="28.74" y="18.98" width="76.16" height="102.95" fill="#fff"/>
          <path d="M105.28,122.3H28.37V18.6h76.91Zm-76.16-.75h75.41V19.35H29.12Z" fill="#006297"/>
        </g>
      </g>
      <rect x="35.86" y="68.77" width="60.07" height="2.39" fill="#0077a5"/>
      <path d="M58.4,41.33a8.25,8.25,0,0,0-6.61-3.27,8.07,8.07,0,0,0-3.21.64A7.83,7.83,0,0,0,46,40.41,8,8,0,0,0,44.36,43a8.4,8.4,0,0,0-.61,3.23,8.54,8.54,0,0,0,.61,3.27,7.81,7.81,0,0,0,4.24,4.33,7.84,7.84,0,0,0,3.15.63A8.94,8.94,0,0,0,58.4,51.3v9.14l-.79.27a23.26,23.26,0,0,1-3.3.93,16.72,16.72,0,0,1-3,.29A15.52,15.52,0,0,1,40.42,57.5a16.09,16.09,0,0,1-3.44-5,15.21,15.21,0,0,1-1.3-6.32A15,15,0,0,1,37,39.9,15.56,15.56,0,0,1,40.38,35a15.94,15.94,0,0,1,5-3.23,15.6,15.6,0,0,1,5.94-1.16A16.29,16.29,0,0,1,54.8,31a20.77,20.77,0,0,1,3.6,1.16Z" fill="#0077a5"/>
      <path d="M90.11,49.09h3.58V55H90.11v6.11H82.94V55H68.6V50L79.94,31.41H90.11Zm-7.17,0V37.4L76.12,49.09Z" fill="#0077a5"/>
      <path d="M37,80.16H48.44a13.53,13.53,0,0,1,5.69,1.22,15.76,15.76,0,0,1,4.65,3.25,15.24,15.24,0,0,1,3.13,4.73A14.37,14.37,0,0,1,63.05,95a14.63,14.63,0,0,1-1.12,5.61,15.22,15.22,0,0,1-3.11,4.75,15.63,15.63,0,0,1-4.65,3.27,13.61,13.61,0,0,1-5.73,1.22H37Zm7.72,23.16h1.77a9.56,9.56,0,0,0,3.58-.63A7.71,7.71,0,0,0,52.75,101a7.48,7.48,0,0,0,1.65-2.62A9.39,9.39,0,0,0,55,95a9.05,9.05,0,0,0-.6-3.31,7.38,7.38,0,0,0-4.33-4.37,9.46,9.46,0,0,0-3.54-.63H44.74Z" fill="#0077a5"/>
      <path d="M93.3,90.09a8.26,8.26,0,0,0-6.62-3.27,8.06,8.06,0,0,0-3.21.63,7.65,7.65,0,0,0-4.21,4.29A8.44,8.44,0,0,0,78.65,95a8.54,8.54,0,0,0,.61,3.27,7.89,7.89,0,0,0,1.69,2.6,8,8,0,0,0,2.54,1.73,7.84,7.84,0,0,0,3.15.63,9,9,0,0,0,6.66-3.15v9.14l-.79.27a23.36,23.36,0,0,1-3.31.93,15.8,15.8,0,0,1-3,.3,15.54,15.54,0,0,1-10.85-4.44,16.28,16.28,0,0,1-3.45-5,16,16,0,0,1,0-12.6,15.53,15.53,0,0,1,8.41-8.15,15.43,15.43,0,0,1,5.95-1.17,16.2,16.2,0,0,1,3.48.38,21.76,21.76,0,0,1,3.61,1.16Z" fill="#0077a5"/>
    </g>
    <g>
      <path d="M134.54,44.27v2.31a5.37,5.37,0,0,0-3.49-1.41,4.44,4.44,0,0,0-3.34,1.42,4.82,4.82,0,0,0-1.37,3.47,4.71,4.71,0,0,0,1.37,3.42,4.51,4.51,0,0,0,3.35,1.39,4.17,4.17,0,0,0,1.75-.33,5.3,5.3,0,0,0,.83-.45c.28-.19.58-.42.9-.68v2.34a7,7,0,0,1-3.5.94,6.51,6.51,0,0,1-4.72-1.92,6.42,6.42,0,0,1-1.94-4.69A6.61,6.61,0,0,1,126,45.69a6.48,6.48,0,0,1,5.18-2.36A6.66,6.66,0,0,1,134.54,44.27Z" fill="#0077a5"/>
      <path d="M137.12,50a6.34,6.34,0,0,1,2-4.67,6.59,6.59,0,0,1,4.78-1.95,6.73,6.73,0,0,1,6.69,6.7,6.34,6.34,0,0,1-2,4.71,6.82,6.82,0,0,1-9.29.22A6.33,6.33,0,0,1,137.12,50Zm2,0a4.65,4.65,0,0,0,1.44,3.51,4.76,4.76,0,0,0,6.71,0,5,5,0,0,0,0-6.9,4.8,4.8,0,0,0-6.78,0A4.61,4.61,0,0,0,139.08,50Z" fill="#0077a5"/>
      <path d="M153.88,56.46V42.71l9.39,9.82v-9h1.95V57.24l-9.39-9.8v9Z" fill="#0077a5"/>
      <path d="M172.71,45.41V56.46h-1.94V45.41h-3V43.58h7.85v1.83Z" fill="#0077a5"/>
      <path d="M182.62,51l4,5.49h-2.37l-3.68-5.27h-.35v5.27h-1.95V43.58h2.28a5.71,5.71,0,0,1,3.69,1,3.53,3.53,0,0,1,1.25,2.82,3.61,3.61,0,0,1-.79,2.35A3.45,3.45,0,0,1,182.62,51Zm-2.42-1.48h.61c1.84,0,2.77-.7,2.77-2.1s-.9-2-2.69-2h-.69Z" fill="#0077a5"/>
      <path d="M197,53.33h-5.52L190,56.46h-2.09l6.37-13.69,6.15,13.69h-2.13Zm-.8-1.82-1.91-4.38-2,4.38Z" fill="#0077a5"/>
      <path d="M211.82,44.27v2.31a5.41,5.41,0,0,0-3.49-1.41A4.42,4.42,0,0,0,205,46.59a4.78,4.78,0,0,0-1.37,3.47A4.67,4.67,0,0,0,205,53.48a4.51,4.51,0,0,0,3.35,1.39,4.16,4.16,0,0,0,1.74-.33,4.54,4.54,0,0,0,.83-.45,11.27,11.27,0,0,0,.91-.68v2.34a7,7,0,0,1-3.51.94,6.59,6.59,0,0,1-6.65-6.61,6.65,6.65,0,0,1,1.62-4.39,6.51,6.51,0,0,1,5.18-2.36A6.67,6.67,0,0,1,211.82,44.27Z" fill="#0077a5"/>
      <path d="M218.68,45.41V56.46h-2V45.41h-3V43.58h7.86v1.83Z" fill="#0077a5"/>
      <path d="M231.48,45.5l-1.57.93a2.78,2.78,0,0,0-.85-1,1.91,1.91,0,0,0-1.07-.26,2,2,0,0,0-1.34.46,1.39,1.39,0,0,0-.54,1.13c0,.63.47,1.13,1.4,1.52l1.29.52a5.54,5.54,0,0,1,2.29,1.55,3.47,3.47,0,0,1,.73,2.24,4,4,0,0,1-1.19,2.94,4.08,4.08,0,0,1-3,1.16,4,4,0,0,1-2.77-1,4.6,4.6,0,0,1-1.34-2.79l2-.44A3.27,3.27,0,0,0,226,54a2,2,0,0,0,1.75.83,2.06,2.06,0,0,0,1.51-.6,2.12,2.12,0,0,0,.6-1.55,2.06,2.06,0,0,0-.11-.68,1.83,1.83,0,0,0-.32-.58,2.52,2.52,0,0,0-.57-.49,5.46,5.46,0,0,0-.84-.44L226.78,50q-2.64-1.11-2.64-3.27a3.05,3.05,0,0,1,1.11-2.42,4,4,0,0,1,2.76-1A3.84,3.84,0,0,1,231.48,45.5Z" fill="#0077a5"/>
      <path d="M131.45,64H127v3.09h4.33V68.9H127V75h-2V62.15h6.43Z" fill="#0077a5"/>
      <path d="M133.93,68.54a6.32,6.32,0,0,1,2-4.68,6.55,6.55,0,0,1,4.77-2,6.74,6.74,0,0,1,6.7,6.7,6.31,6.31,0,0,1-2,4.71,6.79,6.79,0,0,1-9.29.22A6.31,6.31,0,0,1,133.93,68.54Zm2,0a4.64,4.64,0,0,0,1.43,3.51,4.74,4.74,0,0,0,6.71,0,4.76,4.76,0,0,0,1.4-3.46,4.71,4.71,0,0,0-1.38-3.45,4.55,4.55,0,0,0-3.38-1.4,4.75,4.75,0,0,0-4.78,4.82Z" fill="#0077a5"/>
      <path d="M155.06,69.54l4,5.49h-2.38L153,69.76h-.35V75H150.7V62.15H153a5.71,5.71,0,0,1,3.69,1,3.53,3.53,0,0,1,1.25,2.82,3.66,3.66,0,0,1-.78,2.35A3.5,3.5,0,0,1,155.06,69.54Zm-2.42-1.47h.62c1.84,0,2.76-.71,2.76-2.11s-.9-2-2.69-2h-.69Z" fill="#0077a5"/>
      <path d="M168,75V62.15h2.7a9.67,9.67,0,0,1,3.07.39,5.76,5.76,0,0,1,2.2,1.27,6.21,6.21,0,0,1,2,4.78,6.11,6.11,0,0,1-2.08,4.81,5.9,5.9,0,0,1-2.18,1.27,10,10,0,0,1-3,.36Zm1.94-1.82h.88a7.45,7.45,0,0,0,2.18-.28,4.24,4.24,0,0,0,1.56-.93A4.39,4.39,0,0,0,176,68.59a4.45,4.45,0,0,0-1.42-3.43A5.33,5.33,0,0,0,170.78,64h-.88Z" fill="#0077a5"/>
      <path d="M188.15,71.9h-5.51L181.2,75h-2.09l6.37-13.69L191.63,75H189.5Zm-.79-1.82-1.91-4.38-2,4.38Z" fill="#0077a5"/>
      <path d="M196.93,64V75h-2V64h-3V62.15h7.86V64Z" fill="#0077a5"/>
      <path d="M209.33,71.9h-5.51L202.39,75h-2.1l6.37-13.69L212.81,75h-2.12Zm-.79-1.82-1.91-4.38-2,4.38Z" fill="#0077a5"/>
      <path d="M134.54,81.42v2.3a5.37,5.37,0,0,0-3.49-1.41,4.45,4.45,0,0,0-3.34,1.43,4.81,4.81,0,0,0-1.37,3.47,4.71,4.71,0,0,0,1.37,3.42A4.51,4.51,0,0,0,131.06,92a4.17,4.17,0,0,0,1.75-.33,5.3,5.3,0,0,0,.83-.45,10.93,10.93,0,0,0,.9-.69V92.9a7,7,0,0,1-3.5.94,6.48,6.48,0,0,1-4.72-1.93,6.4,6.4,0,0,1-1.94-4.68A6.59,6.59,0,0,1,126,82.84a6.45,6.45,0,0,1,5.18-2.36A6.57,6.57,0,0,1,134.54,81.42Z" fill="#0077a5"/>
      <path d="M137.12,87.11a6.34,6.34,0,0,1,2-4.67,6.59,6.59,0,0,1,4.78-2,6.71,6.71,0,0,1,6.69,6.69,6.34,6.34,0,0,1-2,4.72,6.8,6.8,0,0,1-9.29.21A6.31,6.31,0,0,1,137.12,87.11Zm2,0a4.77,4.77,0,0,0,8.15,3.49,5,5,0,0,0,0-6.91,4.8,4.8,0,0,0-6.78,0A4.65,4.65,0,0,0,139.08,87.13Z" fill="#0077a5"/>
      <path d="M155.83,80.73v11h3.78v1.83h-5.73V80.73Z" fill="#0077a5"/>
      <path d="M164.25,80.73v11H168v1.83h-5.73V80.73Z" fill="#0077a5"/>
      <path d="M179,90.48h-5.51l-1.44,3.13H170l6.37-13.69,6.15,13.69h-2.13Zm-.79-1.83-1.91-4.38-2,4.38Z" fill="#0077a5"/>
      <path d="M185,93.61V80.73h1.94a8.16,8.16,0,0,1,2.06.2,3.14,3.14,0,0,1,1.31.67,3.54,3.54,0,0,1,.86,1.23,3.82,3.82,0,0,1,.32,1.5,3,3,0,0,1-1.06,2.34A3.13,3.13,0,0,1,192,87.9a3.46,3.46,0,0,1,.6,2,3.38,3.38,0,0,1-1.07,2.55,3.32,3.32,0,0,1-1.44.89,8,8,0,0,1-2.19.25Zm1.95-7.35h.61a2.21,2.21,0,0,0,1.58-.48,1.85,1.85,0,0,0,.51-1.42,1.77,1.77,0,0,0-.52-1.38,2.16,2.16,0,0,0-1.5-.47h-.68Zm0,5.52h1.2a2.93,2.93,0,0,0,1.93-.52,1.76,1.76,0,0,0,.65-1.42,1.81,1.81,0,0,0-.62-1.4,3.26,3.26,0,0,0-2.18-.56h-1Z" fill="#0077a5"/>
      <path d="M195.18,87.11a6.3,6.3,0,0,1,2-4.67,6.55,6.55,0,0,1,4.77-2,6.73,6.73,0,0,1,6.7,6.69,6.32,6.32,0,0,1-2,4.72,6.8,6.8,0,0,1-9.29.21A6.34,6.34,0,0,1,195.18,87.11Zm2,0a4.77,4.77,0,0,0,8.15,3.49,4.79,4.79,0,0,0,1.39-3.45,4.72,4.72,0,0,0-1.38-3.46,4.55,4.55,0,0,0-3.38-1.4,4.61,4.61,0,0,0-3.4,1.4A4.68,4.68,0,0,0,197.14,87.13Z" fill="#0077a5"/>
      <path d="M216.3,88.12l4,5.49h-2.38l-3.68-5.28h-.35v5.28h-1.94V80.73h2.27a5.69,5.69,0,0,1,3.69,1,3.53,3.53,0,0,1,1.25,2.82,3.68,3.68,0,0,1-.78,2.35A3.57,3.57,0,0,1,216.3,88.12Zm-2.42-1.48h.62c1.84,0,2.76-.7,2.76-2.11s-.9-2-2.69-2h-.69Z" fill="#0077a5"/>
      <path d="M230.64,90.48h-5.51l-1.44,3.13H221.6L228,79.92l6.15,13.69H232Zm-.79-1.83-1.91-4.38-2,4.38Z" fill="#0077a5"/>
      <path d="M239.42,82.55V93.61h-1.94V82.55h-3V80.73h7.85v1.82Z" fill="#0077a5"/>
      <path d="M246.91,80.73V93.61H245V80.73Z" fill="#0077a5"/>
      <path d="M250.21,87.11a6.34,6.34,0,0,1,2-4.67,6.59,6.59,0,0,1,4.78-2,6.71,6.71,0,0,1,6.69,6.69,6.34,6.34,0,0,1-2,4.72,6.8,6.8,0,0,1-9.29.21A6.31,6.31,0,0,1,250.21,87.11Zm2,0a4.77,4.77,0,0,0,8.15,3.49,5,5,0,0,0,0-6.91,4.8,4.8,0,0,0-6.78,0A4.65,4.65,0,0,0,252.17,87.13Z" fill="#0077a5"/>
      <path d="M267,93.61V79.85l9.39,9.83v-9h1.95V94.39l-9.39-9.8v9Z" fill="#0077a5"/>
    </g>
  </g>
</svg>
