<?xml version="1.0" encoding="utf-8"?>
<!-- Generator: Adobe Illustrator 23.0.4, SVG Export Plug-In . SVG Version: 6.00 Build 0)  -->
<svg version="1.1" id="Layer_1" xmlns="http://www.w3.org/2000/svg" xmlns:xlink="http://www.w3.org/1999/xlink" x="0px" y="0px"
	 viewBox="0 0 109 27.3" style="enable-background:new 0 0 109 27.3;" xml:space="preserve">
<style type="text/css">
	.st0{fill-rule:evenodd;clip-rule:evenodd;fill:#FFFFFF;}
	.st1{opacity:0.5;fill-rule:evenodd;clip-rule:evenodd;fill:#FFFFFF;enable-background:new    ;}
	.st2{fill:#FFFFFF;}
</style>
<g id="ww29HX_2_">
	<g>
		<path class="st0" d="M8.1,22c-1.9,0-3.8,0-5.6,0c-0.6,0-1.1-0.3-1.4-0.8C1,21.1,0.9,21,0.9,20.9c-0.3-0.5-0.3-1.1-0.2-1.6
			c0-0.1,0.1-0.2,0.2-0.4c0.3-0.7,0.6-1.3,1-2c0.3-0.6,0.6-1.1,0.9-1.7c0.2-0.4,0.4-0.9,0.6-1.3c0.3-0.6,0.6-1.1,0.8-1.7
			c0.1-0.1,0.1-0.3,0.2-0.4c0.3-0.5,0.5-1,0.8-1.6c0.1-0.1,0.1-0.3,0.1-0.4c0-1.3,0-2.6,0-3.9c0-0.3,0-0.6,0.2-0.8
			C5.6,5,5.7,4.9,5.8,4.9C6.2,4.7,6.6,4.7,7,4.7c0.9,0,1.9,0,2.8,0c0.3,0,0.6,0.1,0.9,0.2c0.4,0.2,0.6,0.6,0.6,1c0,1.3,0,2.5,0,3.8
			c0,0.5,0.2,0.9,0.4,1.4c0.1,0.2,0.2,0.5,0.3,0.7c0.1,0.2,0.2,0.3,0.3,0.5c0.2,0.4,0.4,0.9,0.6,1.3c0.3,0.6,0.5,1.1,0.8,1.7
			c0.2,0.4,0.4,0.8,0.6,1.3c0.1,0.2,0.2,0.4,0.3,0.5c0.3,0.6,0.6,1.3,0.9,1.9c0.1,0.3,0.2,0.7,0.2,1c0,0.6-0.3,1.1-0.7,1.5
			c-0.3,0.3-0.6,0.4-1,0.4C11.8,22,10,22,8.1,22L8.1,22z M8,15.9L8,15.9c1.2,0,2.4,0,3.5,0c0.3,0,0.4-0.1,0.3-0.4
			c-0.2-0.4-0.4-0.8-0.6-1.1c-0.1-0.2-0.1-0.4-0.2-0.5c-0.3-0.7-0.6-1.4-0.9-2c-0.1-0.2-0.2-0.4-0.3-0.7c-0.1-0.3-0.2-0.5-0.2-0.8
			c0-1.3,0-2.5,0-3.8c0-0.4-0.1-0.5-0.5-0.5c-0.7,0-1.4,0-2.1,0c-0.4,0-0.4,0-0.4,0.4c0,1.1,0,2.2,0,3.3c0,0.4,0,0.8-0.2,1.1
			c-0.2,0.5-0.4,0.9-0.6,1.4c-0.3,0.7-0.6,1.3-0.9,2c-0.2,0.4-0.4,0.8-0.6,1.2c0,0.1-0.1,0.2-0.1,0.3s0.2,0.1,0.3,0.1
			C5.6,15.9,6.8,15.9,8,15.9z"/>
		<path class="st1" d="M6,24.2c2.8,0,5.6,0,8.4,0c0.3,0,0.6,0,0.9,0.2c0.5,0.3,0.8,0.8,0.8,1.4c0,0.9-0.8,1.5-1.6,1.5
			c-5.7,0-7.1,0-12.8,0c-0.5,0-1-0.1-1.3-0.6c-0.5-0.6-0.5-1.3,0-2c0.3-0.4,0.7-0.5,1.1-0.5C4.5,24.2,3.1,24.2,6,24.2L6,24.2z"/>
		<path class="st1" d="M6,0c2.8,0,5.6,0,8.4,0c0.3,0,0.6,0,0.9,0.2c0.5,0.3,0.8,0.8,0.8,1.4c0,0.9-0.8,1.5-1.6,1.5
			c-5.7,0-7.1,0-12.8,0c-0.5,0-1-0.1-1.3-0.6c-0.5-0.6-0.5-1.3,0-2C0.7,0.1,1.1,0,1.5,0C4.5,0,3.1,0,6,0L6,0z"/>
	</g>
</g>
<g>
	<path class="st2" d="M38.2,19.5c-0.6,0.7-1.4,1.2-2.4,1.7c-1.1,0.5-2.4,0.8-4,0.8c-2,0-3.7-0.6-4.9-1.9c-1.3-1.2-1.9-2.9-1.9-4.8
		v-3.4c0-2,0.6-3.6,1.8-4.8s2.8-1.9,4.7-1.9c2.1,0,3.7,0.5,4.7,1.5s1.6,2.3,1.8,4v0.1h-3.6c-0.1-0.9-0.4-1.5-0.8-1.9
		c-0.4-0.4-1.1-0.7-2-0.7s-1.6,0.3-2.1,1s-0.8,1.6-0.8,2.7v3.4c0,1.1,0.3,2,0.8,2.7s1.3,1,2.2,1c0.7,0,1.2-0.1,1.6-0.2
		c0.4-0.1,0.7-0.3,0.9-0.4v-2.6h-2.6v-2.5H38v6.2H38.2z"/>
	<path class="st2" d="M54.1,15c0,2-0.6,3.7-1.9,5c-1.3,1.3-2.9,2-5,2s-3.7-0.7-5-2s-1.9-3-1.9-5v-2.9c0-2,0.6-3.7,1.9-5
		c1.3-1.3,3-2,5-2s3.7,0.7,5,2c1.3,1.3,1.9,3,1.9,5V15z M50.3,12.1c0-1.2-0.3-2.1-0.8-2.9c-0.5-0.7-1.3-1.1-2.3-1.1
		s-1.8,0.4-2.3,1.1c-0.5,0.7-0.8,1.7-0.8,2.9v3c0,1.2,0.3,2.1,0.8,2.9c0.5,0.7,1.3,1.1,2.4,1.1c1,0,1.8-0.4,2.3-1.1
		c0.5-0.7,0.8-1.7,0.8-2.9v-3H50.3z"/>
	<path class="st2" d="M61.9,17.3l0.1,0.6l0,0l0.1-0.5l3.2-11.9h4L64,21.8h-4L54.7,5.5h4L61.9,17.3z"/>
	<path class="st2" d="M72.8,20.6h8.1v1.1h-9.4V5.4h1.3V20.6z"/>
	<path class="st2" d="M92.6,17.2h-7.5l-1.7,4.6H82l6.2-16.3h1.3l6.2,16.3h-1.4L92.6,17.2z M85.5,16h6.6l-3.3-8.8h-0.1L85.5,16z"/>
	<path class="st2" d="M98.1,21.7V5.4h4.8c1.7,0,3,0.4,4,1.1c0.9,0.7,1.4,1.8,1.4,3.2c0,0.8-0.2,1.6-0.7,2.2
		c-0.5,0.6-1.1,1.1-1.9,1.3c1,0.2,1.8,0.6,2.4,1.4c0.6,0.8,0.9,1.6,0.9,2.6c0,1.5-0.5,2.6-1.4,3.4c-0.9,0.8-2.2,1.2-3.8,1.2h-5.7
		V21.7z M99.5,12.7h3.8c1.2,0,2.1-0.3,2.7-0.8c0.6-0.5,1-1.3,1-2.3s-0.3-1.8-1-2.3s-1.7-0.8-3-0.8h-3.4L99.5,12.7L99.5,12.7z
		 M99.5,13.9v6.7h4.3c1.2,0,2.1-0.3,2.8-0.9c0.7-0.6,1-1.4,1-2.5c0-1-0.3-1.8-0.9-2.4c-0.6-0.6-1.5-0.9-2.7-0.9
		C104,13.9,99.5,13.9,99.5,13.9z"/>
</g>
</svg>
