<svg id="Layer_1" data-name="Layer 1" xmlns="http://www.w3.org/2000/svg" viewBox="0 0 504 225">
  <title>trends-logo-white</title>
  <g>
    <g>
      <g>
        <path d="M25.87,108.65V36.76H0V20.18H70.57V36.76H44.83v71.89Z" fill="#fff"/>
        <path d="M132.63,108.65,115.26,77.21h-13.8v31.44H82.63V20.18H124c18.44,0,29.71,12.07,29.71,28.52,0,15.65-9.81,24-19.36,26.26l19.9,33.69Zm1.86-59.95c0-7.43-5.7-11.94-13.26-11.94H101.46V60.63h19.77C128.79,60.63,134.49,56.12,134.49,48.7Z" fill="#fff"/>
        <path d="M306.25,108.65,264.07,51v57.7H245.23V20.18H264.6l41,55.57V20.18h18.83v88.47Z" fill="#fff"/>
        <path d="M341.92,108.65V20.18H376.8c27.73,0,47,17.64,47,44.3s-19.23,44.17-47,44.17Zm62.61-44.17c0-15.65-9.55-27.72-27.73-27.72H360.75V92.07H376.8C394.31,92.07,404.53,79.47,404.53,64.48Z" fill="#fff"/>
        <path d="M431.18,96.18l10.21-14.32a38.8,38.8,0,0,0,28.12,11.93c10.35,0,15.39-4.77,15.39-9.81,0-6.5-8.22-8.36-17.91-10.74-14.46-3.32-33-7.3-33-27.46,0-14.73,12.74-26.93,33.56-26.93,14.06,0,25.74,4.24,34.49,12.34L491.53,45A38,38,0,0,0,465.8,35.3c-8.09,0-12.6,3.58-12.6,8.89,0,5.7,8.09,7.56,17.64,9.81C485.43,57.45,504,61.83,504,81.86c0,16.18-11.54,28.38-35.42,28.38C451.61,110.24,439.4,104.54,431.18,96.18Z" fill="#fff"/>
      </g>
      <rect x="196.29" y="36.76" width="34.22" height="18.55" fill="#fff"/>
      <rect x="186.74" y="71.99" width="43.77" height="20.08" fill="#fff"/>
      <rect x="174.99" y="108.75" width="55.52" height="20.08" fill="#fff"/>
      <rect x="174.99" width="55.52" height="20.08" fill="#fff"/>
    </g>
    <g>
      <path d="M9.07,146.87H0v-2.16H20.57v2.16H11.49v25.61H9.07Z" fill="#fff"/>
      <path d="M39,158.78c0-3.87-2-4.95-4.87-4.95a8.6,8.6,0,0,0-6.54,3.45v15.2H25.38V144.71h2.17v10.7a10.19,10.19,0,0,1,7.24-3.54c4.09,0,6.33,1.92,6.33,6.45v14.16H39Z" fill="#fff"/>
      <path d="M56.39,151.87c6.12,0,9.49,4.87,9.49,10.66v.58H49.06c.21,4.37,3.13,8,7.87,8a8.85,8.85,0,0,0,6.58-2.79l1.13,1.41A10.39,10.39,0,0,1,56.76,173c-5.87,0-10.07-4.37-10.07-10.58C46.69,156.58,50.81,151.87,56.39,151.87Zm-7.33,9.54H63.68c0-3.42-2.29-7.67-7.33-7.67C51.6,153.74,49.23,157.91,49.06,161.41Z" fill="#fff"/>
      <path d="M95.39,158.41c0-2.84-1.2-4.58-4-4.58a7.45,7.45,0,0,0-5.74,3.41v15.24H83.4V158.41c0-2.84-1.17-4.58-4-4.58a7.7,7.7,0,0,0-5.74,3.45v15.2H71.45V152.37h2.17v3a8.82,8.82,0,0,1,6.49-3.54,5.07,5.07,0,0,1,5.29,3.79,8.36,8.36,0,0,1,6.66-3.79c3.71,0,5.49,2.08,5.49,6.12v14.49H95.39Z" fill="#fff"/>
      <path d="M117.07,170.11a8.75,8.75,0,0,1-6.83,2.87c-3.46,0-7-2.37-7-6.7s3.54-6.67,7-6.67a8.7,8.7,0,0,1,6.83,2.88v-4.08c0-3-2.42-4.62-5.41-4.62a7.81,7.81,0,0,0-6.29,3l-1.21-1.5a9.76,9.76,0,0,1,7.75-3.37c4.07,0,7.32,2,7.32,6.45v14.16h-2.16Zm0-6a7.57,7.57,0,0,0-6.08-2.79c-3.33,0-5.5,2.12-5.5,5s2.17,5,5.5,5a7.51,7.51,0,0,0,6.08-2.75Z" fill="#fff"/>
      <path d="M126.38,168.61V154.29h-3.33v-1.92h3.33v-5.5h2.21v5.5h4.08v1.92h-4.08v14c0,1.63.66,2.75,2.08,2.75a3.18,3.18,0,0,0,2.25-1l.83,1.66a4.5,4.5,0,0,1-3.41,1.25C127.67,173,126.38,171.36,126.38,168.61Z" fill="#fff"/>
      <path d="M136.82,147.54a1.66,1.66,0,0,1,1.67-1.62,1.63,1.63,0,0,1,1.67,1.62,1.67,1.67,0,0,1-1.67,1.67A1.71,1.71,0,0,1,136.82,147.54Zm.59,4.83h2.17v20.11h-2.17Z" fill="#fff"/>
      <path d="M154.93,151.87a8.32,8.32,0,0,1,7.13,3.41l-1.51,1.34a6.34,6.34,0,0,0-5.49-2.79c-4.71,0-7.58,3.74-7.58,8.57s2.87,8.62,7.58,8.62a6.38,6.38,0,0,0,5.49-2.83l1.51,1.34a8.25,8.25,0,0,1-7.13,3.45c-5.91,0-9.78-4.71-9.78-10.58S149,151.87,154.93,151.87Z" fill="#fff"/>
      <path d="M186.23,161h-6.12v11.49h-2.37V144.71H188.1c4.79,0,8.45,3,8.45,8.12a7.65,7.65,0,0,1-7.7,8l8,11.66H194Zm1.66-14.12h-7.78v11.95h7.78a6,6,0,1,0,0-11.95Z" fill="#fff"/>
      <path d="M209.66,151.87c6.12,0,9.49,4.87,9.49,10.66v.58H202.33c.21,4.37,3.13,8,7.87,8a8.85,8.85,0,0,0,6.58-2.79l1.12,1.41A10.37,10.37,0,0,1,210,173c-5.87,0-10.07-4.37-10.07-10.58C200,156.58,204.08,151.87,209.66,151.87Zm-7.33,9.54h14.61c0-3.42-2.28-7.67-7.32-7.67C204.87,153.74,202.49,157.91,202.33,161.41Z" fill="#fff"/>
      <path d="M224.26,168.19a8.35,8.35,0,0,0,6.5,3c3.37,0,5.37-1.75,5.37-4.08,0-2.54-2.75-3.25-5.62-4-3.38-.83-7.09-1.71-7.09-5.62,0-3.08,2.63-5.58,7.17-5.58a9.22,9.22,0,0,1,7.2,3l-1.2,1.54a7.33,7.33,0,0,0-6-2.67c-3.13,0-5,1.58-5,3.67,0,2.29,2.58,2.87,5.37,3.58,3.46.87,7.33,1.83,7.33,6.12,0,3.24-2.5,5.91-7.54,5.91a9.75,9.75,0,0,1-7.74-3.16Z" fill="#fff"/>
      <path d="M252.35,151.87c6.12,0,9.5,4.87,9.5,10.66v.58H245c.21,4.37,3.12,8,7.86,8a8.82,8.82,0,0,0,6.58-2.79l1.13,1.41a10.39,10.39,0,0,1-7.87,3.25c-5.87,0-10.08-4.37-10.08-10.58C242.65,156.58,246.77,151.87,252.35,151.87ZM245,161.41h14.61c0-3.42-2.29-7.67-7.33-7.67C247.56,153.74,245.19,157.91,245,161.41Z" fill="#fff"/>
      <path d="M280.19,170.11a8.73,8.73,0,0,1-6.82,2.87c-3.46,0-7-2.37-7-6.7s3.54-6.67,7-6.67a8.66,8.66,0,0,1,6.82,2.88v-4.08c0-3-2.41-4.62-5.41-4.62a7.85,7.85,0,0,0-6.29,3l-1.2-1.5a9.75,9.75,0,0,1,7.74-3.37c4.08,0,7.33,2,7.33,6.45v14.16h-2.17Zm0-6a7.55,7.55,0,0,0-6.08-2.79c-3.32,0-5.49,2.12-5.49,5s2.17,5,5.49,5a7.48,7.48,0,0,0,6.08-2.75Z" fill="#fff"/>
      <path d="M289.09,152.37h2.17v3.45c1.71-2.24,4-3.87,6.79-3.87v2.38a4.26,4.26,0,0,0-1.08-.09,7.69,7.69,0,0,0-5.71,3.58v14.66h-2.17Z" fill="#fff"/>
      <path d="M310.91,151.87a8.28,8.28,0,0,1,7.11,3.41l-1.49,1.34a6.38,6.38,0,0,0-5.5-2.79c-4.71,0-7.58,3.74-7.58,8.57S306.32,171,311,171a6.42,6.42,0,0,0,5.5-2.83l1.49,1.34a8.21,8.21,0,0,1-7.11,3.45c-5.92,0-9.79-4.71-9.79-10.58S305,151.87,310.91,151.87Z" fill="#fff"/>
      <path d="M336.42,158.78c0-3.87-2-4.95-4.87-4.95a8.6,8.6,0,0,0-6.54,3.45v15.2h-2.17V144.71H325v10.7a10.17,10.17,0,0,1,7.24-3.54c4.08,0,6.33,1.92,6.33,6.45v14.16h-2.16Z" fill="#fff"/>
      <path d="M358.55,148.62v23.86h-2.37V144.71h2.41L376,168.23V144.71h2.38v27.77H376Z" fill="#fff"/>
      <path d="M393.72,151.87c6.12,0,9.49,4.87,9.49,10.66v.58H386.39c.21,4.37,3.13,8,7.87,8a8.85,8.85,0,0,0,6.58-2.79l1.12,1.41a10.37,10.37,0,0,1-7.87,3.25c-5.87,0-10.07-4.37-10.07-10.58C384,156.58,388.14,151.87,393.72,151.87Zm-7.33,9.54H401c-.05-3.42-2.29-7.67-7.33-7.67C388.93,153.74,386.55,157.91,386.39,161.41Z" fill="#fff"/>
      <path d="M409.19,168.61V154.29h-3.33v-1.92h3.33v-5.5h2.21v5.5h4.08v1.92H411.4v14c0,1.63.67,2.75,2.08,2.75a3.18,3.18,0,0,0,2.25-1l.83,1.66a4.48,4.48,0,0,1-3.41,1.25C410.49,173,409.19,171.36,409.19,168.61Z" fill="#fff"/>
      <path d="M431.84,155.28l-5.67,17.2H424.1l-6.54-20.11h2.33l5.33,17.07,5.66-17.07h1.87l5.67,17.07,5.33-17.07h2.33l-6.54,20.11h-2.08Z" fill="#fff"/>
      <path d="M449,162.4c0-5.87,3.79-10.53,9.66-10.53s9.7,4.66,9.7,10.53S464.59,173,458.64,173,449,168.27,449,162.4Zm17,0c0-4.45-2.63-8.57-7.37-8.57s-7.33,4.12-7.33,8.57S454,171,458.64,171,466,166.9,466,162.4Z" fill="#fff"/>
      <path d="M473.91,152.37h2.16v3.45c1.71-2.24,4-3.87,6.79-3.87v2.38a4.26,4.26,0,0,0-1.08-.09,7.71,7.71,0,0,0-5.71,3.58v14.66h-2.16Z" fill="#fff"/>
      <path d="M493,162.9l-3.75,3.54v6H487.1V144.71h2.16v19.15l11.87-11.49H504l-9.36,9.08,9.32,11H501Z" fill="#fff"/>
      <path d="M.75,210c0-5.88,3.79-10.54,9.66-10.54s9.7,4.66,9.7,10.54-3.75,10.57-9.7,10.57S.75,215.84.75,210Zm17,0c0-4.46-2.63-8.58-7.37-8.58S3.08,205.51,3.08,210s2.66,8.61,7.33,8.61S17.78,214.46,17.78,210Z" fill="#fff"/>
      <path d="M39.25,206.43c0-3.88-2-5-4.87-5a8.62,8.62,0,0,0-6.54,3.45V220H25.68V199.93h2.16v3a10.2,10.2,0,0,1,7.25-3.54c4.08,0,6.33,2,6.33,6.54V220H39.25Z" fill="#fff"/>
      <path d="M59,192.27h8.87c8.62,0,14,6.29,14,13.91S76.5,220,67.88,220H59Zm8.87,25.61c7.33,0,11.53-5.21,11.53-11.7s-4.16-11.75-11.53-11.75h-6.5v23.45Z" fill="#fff"/>
      <path d="M100.5,217.67a8.71,8.71,0,0,1-6.82,2.87c-3.46,0-7-2.37-7-6.7s3.54-6.66,7-6.66a8.66,8.66,0,0,1,6.82,2.87V206c0-3-2.41-4.62-5.41-4.62a7.82,7.82,0,0,0-6.28,3l-1.21-1.5a9.75,9.75,0,0,1,7.74-3.37c4.08,0,7.33,2,7.33,6.45V220H100.5Zm0-6a7.54,7.54,0,0,0-6.07-2.79c-3.33,0-5.5,2.12-5.5,5s2.17,5,5.5,5a7.48,7.48,0,0,0,6.07-2.75Z" fill="#fff"/>
      <path d="M109.82,216.17V201.85h-3.33v-1.92h3.33v-5.5H112v5.5h4.08v1.92H112v14c0,1.62.67,2.74,2.08,2.74a3.14,3.14,0,0,0,2.25-1l.83,1.66a4.52,4.52,0,0,1-3.41,1.25C111.11,220.54,109.82,218.92,109.82,216.17Z" fill="#fff"/>
      <path d="M133.63,217.67a8.75,8.75,0,0,1-6.83,2.87c-3.46,0-7-2.37-7-6.7s3.53-6.66,7-6.66a8.69,8.69,0,0,1,6.83,2.87V206c0-3-2.41-4.62-5.41-4.62a7.82,7.82,0,0,0-6.29,3l-1.2-1.5a9.73,9.73,0,0,1,7.74-3.37c4.08,0,7.33,2,7.33,6.45V220h-2.17Zm0-6a7.55,7.55,0,0,0-6.08-2.79c-3.33,0-5.5,2.12-5.5,5s2.17,5,5.5,5a7.48,7.48,0,0,0,6.08-2.75Z" fill="#fff"/>
      <path d="M166.09,217.67a8.75,8.75,0,0,1-6.83,2.87c-3.46,0-7-2.37-7-6.7s3.53-6.66,7-6.66a8.69,8.69,0,0,1,6.83,2.87V206c0-3-2.41-4.62-5.41-4.62a7.82,7.82,0,0,0-6.29,3l-1.2-1.5a9.73,9.73,0,0,1,7.74-3.37c4.08,0,7.33,2,7.33,6.45V220h-2.17Zm0-6a7.55,7.55,0,0,0-6.08-2.79c-3.33,0-5.49,2.12-5.49,5s2.16,5,5.49,5a7.48,7.48,0,0,0,6.08-2.75Z" fill="#fff"/>
      <path d="M188.57,206.43c0-3.88-2-5-4.88-5a8.6,8.6,0,0,0-6.53,3.45V220H175V199.93h2.17v3a10.15,10.15,0,0,1,7.24-3.54c4.08,0,6.33,2,6.33,6.54V220h-2.16Z" fill="#fff"/>
      <path d="M212.28,216.84a8.55,8.55,0,0,1-7,3.7c-5.33,0-9-4.08-9-10.53s3.67-10.58,9-10.58a8.53,8.53,0,0,1,7,3.75V192.27h2.21V220h-2.21Zm0-11.79a8,8,0,0,0-6.62-3.66c-4.45,0-7,3.75-7,8.62s2.58,8.57,7,8.57a8,8,0,0,0,6.62-3.58Z" fill="#fff"/>
      <path d="M232.09,214.34a11.3,11.3,0,0,0,8.66,4c5.7,0,7.33-3.17,7.33-5.54,0-3.92-3.71-5-7.62-6-4.37-1.21-9-2.46-9-7.58,0-4.54,4.08-7.41,9.12-7.41a12,12,0,0,1,9.41,3.91l-1.58,1.75a10,10,0,0,0-8-3.49c-3.7,0-6.49,2.12-6.49,5.12,0,3.29,3.46,4.24,7.24,5.24,4.5,1.29,9.41,2.71,9.41,8.33,0,3.58-2.37,7.87-9.86,7.87a12.77,12.77,0,0,1-10.16-4.41Z" fill="#fff"/>
      <path d="M255.81,216.17V201.85h-3.33v-1.92h3.33v-5.5H258v5.5h4.09v1.92H258v14c0,1.62.67,2.74,2.09,2.74a3.14,3.14,0,0,0,2.25-1l.83,1.66a4.52,4.52,0,0,1-3.42,1.25C257.1,220.54,255.81,218.92,255.81,216.17Z" fill="#fff"/>
      <path d="M279.62,217.67a8.75,8.75,0,0,1-6.83,2.87c-3.46,0-7-2.37-7-6.7s3.54-6.66,7-6.66a8.69,8.69,0,0,1,6.83,2.87V206c0-3-2.42-4.62-5.41-4.62a7.81,7.81,0,0,0-6.29,3l-1.21-1.5a9.76,9.76,0,0,1,7.75-3.37c4.07,0,7.32,2,7.32,6.45V220h-2.16Zm0-6a7.57,7.57,0,0,0-6.08-2.79c-3.33,0-5.5,2.12-5.5,5s2.17,5,5.5,5a7.51,7.51,0,0,0,6.08-2.75Z" fill="#fff"/>
      <path d="M288.93,216.17V201.85H285.6v-1.92h3.33v-5.5h2.21v5.5h4.08v1.92h-4.08v14c0,1.62.66,2.74,2.08,2.74a3.14,3.14,0,0,0,2.25-1l.83,1.66a4.5,4.5,0,0,1-3.41,1.25C290.23,220.54,288.93,218.92,288.93,216.17Z" fill="#fff"/>
      <path d="M299.38,195.1a1.66,1.66,0,0,1,1.66-1.62,1.64,1.64,0,0,1,1.67,1.62,1.67,1.67,0,0,1-1.67,1.67A1.7,1.7,0,0,1,299.38,195.1Zm.58,4.83h2.17V220H300Z" fill="#fff"/>
      <path d="M308.41,215.75a8.35,8.35,0,0,0,6.5,3c3.37,0,5.37-1.75,5.37-4.08,0-2.54-2.76-3.25-5.62-4-3.38-.83-7.09-1.71-7.09-5.62,0-3.08,2.63-5.58,7.17-5.58a9.22,9.22,0,0,1,7.2,3l-1.21,1.54a7.32,7.32,0,0,0-6-2.67c-3.13,0-5,1.58-5,3.67,0,2.29,2.58,2.87,5.37,3.58,3.46.87,7.33,1.83,7.33,6.12,0,3.25-2.5,5.91-7.54,5.91a9.78,9.78,0,0,1-7.75-3.16Z" fill="#fff"/>
      <path d="M328.38,216.17V201.85h-3.33v-1.92h3.33v-5.5h2.21v5.5h4.08v1.92h-4.08v14c0,1.62.66,2.74,2.08,2.74a3.14,3.14,0,0,0,2.25-1l.83,1.66a4.5,4.5,0,0,1-3.41,1.25C329.68,220.54,328.38,218.92,328.38,216.17Z" fill="#fff"/>
      <path d="M338.83,195.1a1.66,1.66,0,0,1,1.66-1.62,1.64,1.64,0,0,1,1.67,1.62,1.67,1.67,0,0,1-1.67,1.67A1.7,1.7,0,0,1,338.83,195.1Zm.58,4.83h2.17V220h-2.17Z" fill="#fff"/>
      <path d="M356.93,199.43a8.32,8.32,0,0,1,7.13,3.41l-1.51,1.34a6.34,6.34,0,0,0-5.49-2.79c-4.71,0-7.58,3.75-7.58,8.58s2.87,8.61,7.58,8.61a6.38,6.38,0,0,0,5.49-2.83l1.51,1.34a8.25,8.25,0,0,1-7.13,3.45c-5.91,0-9.78-4.7-9.78-10.57S351,199.43,356.93,199.43Z" fill="#fff"/>
      <path d="M368.42,215.75a8.35,8.35,0,0,0,6.49,3c3.38,0,5.37-1.75,5.37-4.08,0-2.54-2.75-3.25-5.62-4-3.37-.83-7.08-1.71-7.08-5.62,0-3.08,2.63-5.58,7.17-5.58a9.23,9.23,0,0,1,7.2,3l-1.21,1.54a7.32,7.32,0,0,0-6-2.67c-3.13,0-5,1.58-5,3.67,0,2.29,2.58,2.87,5.37,3.58,3.46.87,7.33,1.83,7.33,6.12,0,3.25-2.5,5.91-7.54,5.91a9.78,9.78,0,0,1-7.75-3.16Z" fill="#fff"/>
    </g>
  </g>
</svg>
