<svg id="bothell_stacked_large" data-name="bothell stacked large" xmlns="http://www.w3.org/2000/svg" viewBox="0 0 179 87.75">
  <title>uwashington_logo_white</title>
  <g>
    <g>
      <path d="M161.36,48.65l-.55.53.06.2h1.7c-.27,1.85-.51,3.44-.9,6-.55,3.83-1,5.18-1.42,5.51a.74.74,0,0,1-.51.18,2.89,2.89,0,0,1-.9-.3.49.49,0,0,0-.57.14,1.3,1.3,0,0,0-.35.7c0,.41.53.61.88.61a3.45,3.45,0,0,0,2.25-1.41c.7-.86,1.64-2.85,2.44-7.47.14-.86.31-1.72.65-4l2.09-.2.45-.53h-2.41c.61-3.79,1.12-4.94,2-4.94a2.22,2.22,0,0,1,1.58.68.42.42,0,0,0,.57,0,1.16,1.16,0,0,0,.41-.76c0-.41-.53-.86-1.23-.86a4.56,4.56,0,0,0-3.29,1.72,9.28,9.28,0,0,0-1.62,4.18ZM152.16,54c0-3,1.54-4.67,2.17-4.93a1.94,1.94,0,0,1,.68-.17c1,0,1.61.78,1.61,2.36,0,2.66-1.35,5.08-2.21,5.36a2.08,2.08,0,0,1-.63.15c-1.15,0-1.62-1.23-1.62-2.77m3.5-5.85a4.88,4.88,0,0,0-2.21.73,6.43,6.43,0,0,0-2.95,5.61c0,1.44.68,3,2.58,3a5.24,5.24,0,0,0,3-1.37A7.35,7.35,0,0,0,158.28,51c0-1.7-.9-2.84-2.62-2.84m-22.12-4.22,3.68,6.65V56.2l-1.16,1.16H140l-1.16-1.16V50.59L142.58,44l1.21-1.19h-3.6l1.13,1.14-3.06,5.46-2.92-5.46,1.14-1.14h-4.12Zm-8.3,12.26V43.87H128l1.56,1.55V42.78H119.31v2.64l1.59-1.55h2.74V56.2l-1.14,1.16h3.9ZM111.41,42.78l1.16,1.16V56.2l-1.16,1.16h3.93l-1.16-1.16V43.94l1.16-1.16ZM106.57,53.3a3.23,3.23,0,0,0-1.36-2.79l-3-2.15a3.4,3.4,0,0,1-1.61-2.49,2.06,2.06,0,0,1,2.1-2.08,7.93,7.93,0,0,1,.94.18L105,45.35l1.36-2-2.89-.55a2.33,2.33,0,0,0-.69-.07A3.67,3.67,0,0,0,99,46.29a4.19,4.19,0,0,0,1.87,3.33l3,2.15a2.47,2.47,0,0,1,1,2.13,2.41,2.41,0,0,1-2.42,2.57,2.57,2.57,0,0,1-1-.2l-1.38-1.63-1.26,2.27,2.79.54a5,5,0,0,0,.87.1,4.18,4.18,0,0,0,4-4.25M87.23,43.87H89a2.86,2.86,0,0,1,2.79,2.91A2.74,2.74,0,0,1,89,49.48H87.23Zm0,12.33V50.56h2.2L93,57.36h2.42L94.24,56.2l-3.26-6a3.84,3.84,0,0,0,2.75-3.41c0-2.47-2.3-4-4.72-4H84.49l1.13,1.16V56.2l-1.13,1.16h3.9Zm-7.17,1.16V54.69l-1.55,1.58H74.09V50.14h3.28l1.16,1.16V47.9l-1.16,1.16H74.09V43.87h4.42l1.55,1.55V42.78H71.35l1.13,1.16V56.2l-1.13,1.16ZM60.55,42.78H56.43l1.18,1.16,4.1,13.42h.74l4.23-13.42,1.18-1.16h-3.5l1.13,1.14L62.4,54l-3-10.08Zm-11.93,0,1.16,1.16V56.2l-1.16,1.16h3.93L51.39,56.2V43.94l1.16-1.16ZM34.44,56.1V45.18l7.86,12.2h.47V44L44,42.78H40.22L41.48,44V53.3L34.91,42.78h-3L33.13,44V56.1L31.9,57.36h3.8Zm-17-2.65a4.35,4.35,0,0,0,4.52,4.23c2.37,0,4.72-1.76,4.72-4.23V44l1.24-1.26H24.09L25.35,44v9.41a3,3,0,0,1-3,3,3.13,3.13,0,0,1-3.21-3V44l1.26-1.26H16.16L17.42,44Z" fill="#fff"/>
      <path d="M166.12,86.06V71.38l10.36,16.38h.83V69.86l1.69-1.7h-5.11l1.69,1.7V82.31l-8.83-14.15H162.7l1.66,1.7v16.2l-1.66,1.69h5.11Zm-14.91.63c-3.92,0-5.28-4.68-5.28-8.73s1.36-8.73,5.28-8.73,5.31,4.68,5.31,8.73-1.36,8.73-5.31,8.73M143.37,78c0,5,2.82,10.22,7.84,10.22s7.86-5.24,7.86-10.22-2.82-10.23-7.86-10.23S143.37,73,143.37,78m-7.78,8.23V69.62h3.72l2.09,2.1V68.16H127.62v3.56l2.13-2.1h3.68V86.19l-1.53,1.56h5.25Zm-14.28-7.34v6.31a4.23,4.23,0,0,1-3.22,1.4c-4.35,0-6.54-4.39-6.54-8.6s2.75-8.6,6.54-8.6a3,3,0,0,1,2.39.93l2.15,2.12V69a8.69,8.69,0,0,0-4.54-1.13c-5.35,0-9.1,4.78-9.1,10.06S112.74,88,118.09,88a8.5,8.5,0,0,0,5.37-1.43V78.85L125,77.29h-5.24Zm-28,7.21V71.38l10.42,16.36h.77V69.86l1.69-1.7h-5.11l1.69,1.7V82.31L94,68.16h-4l1.66,1.7v16.2l-1.66,1.69H95ZM62,77.92h8.23v8.27l-1.56,1.56H74l-1.56-1.56V69.72L74,68.16H68.71l1.56,1.56v6.74H62V69.72l1.56-1.56H58.35l1.53,1.56V86.19l-1.53,1.56H63.6L62,86.19Zm-8.33,4.39a4.36,4.36,0,0,0-1.83-3.76l-4-2.88a4.61,4.61,0,0,1-2.16-3.36,2.77,2.77,0,0,1,2.82-2.79,11,11,0,0,1,1.26.24l1.73,1.86,1.82-2.73-3.88-.73a3.37,3.37,0,0,0-.93-.1,4.94,4.94,0,0,0-5,4.82,5.65,5.65,0,0,0,2.52,4.48l4,2.89a3.3,3.3,0,0,1,1.39,2.85,3.3,3.3,0,0,1-4.61,3.19L45,84.1l-1.69,3.05,3.75.73a6.36,6.36,0,0,0,1.16.14,5.62,5.62,0,0,0,5.45-5.71m-21.42-9.8L35,80.61H29.5ZM27.57,86.22,29,82.08h6.48l1.36,4.14-1.53,1.53h5.54l-1.56-1.59-6.1-18h-1L26,86.16l-1.59,1.59H29.1ZM8.1,87.75l4.48-14.17,4.35,14.17h1l5.68-18,1.59-1.56H20.48L22,69.69,17.86,83.24l-4-13.55,1.53-1.53H9.83l1.56,1.56.4,1.3L8,83.24,4,69.69l1.52-1.53H0l1.59,1.56,5.51,18Z" fill="#fff"/>
    </g>
    <polygon points="79.27 68.16 80.83 69.72 80.83 86.19 79.27 87.75 84.55 87.75 82.99 86.19 82.99 69.72 84.55 68.16 79.27 68.16" fill="#fff"/>
  </g>
  <polygon points="67.86 0 67.86 4.97 71.01 4.97 76.53 27.18 84.29 27.18 87.97 13.28 91.51 27.18 99.26 27.18 105.1 4.97 108.09 4.97 108.09 0 97.42 0 97.42 4.97 100.95 4.97 97.11 19.43 92.35 0 87.44 0 82.22 19.58 78.45 4.97 82.29 4.97 82.29 0 67.86 0" fill="#fff"/>
</svg>
