<?xml version="1.0" encoding="utf-8"?>
<!-- Generator: Adobe Illustrator 23.0.4, SVG Export Plug-In . SVG Version: 6.00 Build 0)  -->
<svg version="1.1" id="Layer_1" xmlns="http://www.w3.org/2000/svg" xmlns:xlink="http://www.w3.org/1999/xlink" x="0px" y="0px"
	 viewBox="0 0 102 63" style="enable-background:new 0 0 102 63;" xml:space="preserve">
<style type="text/css">
	.st0{fill-rule:evenodd;clip-rule:evenodd;fill:#FFFFFF;filter:url(#Adobe_OpacityMaskFilter);}
	.st1{mask:url(#a_1_);fill-rule:evenodd;clip-rule:evenodd;fill:#FFFFFF;}
	.st2{fill-rule:evenodd;clip-rule:evenodd;fill:#FFFFFF;}
	.st3{fill-rule:evenodd;clip-rule:evenodd;fill:#FFFFFF;filter:url(#Adobe_OpacityMaskFilter_1_);}
	.st4{mask:url(#b_1_);fill-rule:evenodd;clip-rule:evenodd;fill:#FFFFFF;}
	.st5{fill-rule:evenodd;clip-rule:evenodd;fill:#FFFFFF;filter:url(#Adobe_OpacityMaskFilter_2_);}
	.st6{mask:url(#b_2_);fill-rule:evenodd;clip-rule:evenodd;fill:#FFFFFF;}
	.st7{fill-rule:evenodd;clip-rule:evenodd;fill:#FFFFFF;filter:url(#Adobe_OpacityMaskFilter_3_);}
	.st8{mask:url(#b_3_);fill-rule:evenodd;clip-rule:evenodd;fill:#FFFFFF;}
	.st9{fill-rule:evenodd;clip-rule:evenodd;fill:#FFFFFF;filter:url(#Adobe_OpacityMaskFilter_4_);}
	.st10{mask:url(#b_4_);fill-rule:evenodd;clip-rule:evenodd;fill:#FFFFFF;}
	.st11{fill-rule:evenodd;clip-rule:evenodd;fill:#FFFFFF;filter:url(#Adobe_OpacityMaskFilter_5_);}
	.st12{mask:url(#b_5_);fill-rule:evenodd;clip-rule:evenodd;fill:#FFFFFF;}
	.st13{fill-rule:evenodd;clip-rule:evenodd;fill:#FFFFFF;filter:url(#Adobe_OpacityMaskFilter_6_);}
	.st14{mask:url(#b_6_);fill-rule:evenodd;clip-rule:evenodd;fill:#FFFFFF;}
	.st15{fill-rule:evenodd;clip-rule:evenodd;fill:#FFFFFF;filter:url(#Adobe_OpacityMaskFilter_7_);}
	.st16{mask:url(#b_7_);fill-rule:evenodd;clip-rule:evenodd;fill:#FFFFFF;}
	.st17{fill-rule:evenodd;clip-rule:evenodd;fill:#FFFFFF;filter:url(#Adobe_OpacityMaskFilter_8_);}
	.st18{mask:url(#b_8_);fill-rule:evenodd;clip-rule:evenodd;fill:#FFFFFF;}
	.st19{fill-rule:evenodd;clip-rule:evenodd;fill:#FFFFFF;filter:url(#Adobe_OpacityMaskFilter_9_);}
	.st20{mask:url(#b_9_);fill-rule:evenodd;clip-rule:evenodd;fill:#FFFFFF;}
	.st21{fill-rule:evenodd;clip-rule:evenodd;fill:#FFFFFF;filter:url(#Adobe_OpacityMaskFilter_10_);}
	.st22{mask:url(#b_10_);fill-rule:evenodd;clip-rule:evenodd;fill:#FFFFFF;}
	.st23{fill-rule:evenodd;clip-rule:evenodd;fill:#FFFFFF;filter:url(#Adobe_OpacityMaskFilter_11_);}
	.st24{mask:url(#b_11_);fill-rule:evenodd;clip-rule:evenodd;fill:#FFFFFF;}
</style>
<g>
	<defs>
		<filter id="Adobe_OpacityMaskFilter" filterUnits="userSpaceOnUse" x="28.4" y="0.4" width="54.2" height="62.6">
			<feColorMatrix  type="matrix" values="1 0 0 0 0  0 1 0 0 0  0 0 1 0 0  0 0 0 1 0"/>
		</filter>
	</defs>
	<mask maskUnits="userSpaceOnUse" x="28.4" y="0.4" width="54.2" height="62.6" id="a_1_">
		<path class="st0" d="M0,0.4h101.5V63H0V0.4z"/>
	</mask>
	<path class="st1" d="M81.6,54.2C81.6,54.3,81.6,54.3,81.6,54.2l-0.3-0.3c-5.7,4.7-12.9,7.2-20.4,7.2c-8.5,0-16.5-3.2-22.5-9.1
		c-6-5.8-9.3-13.7-9.3-22c0-6.4,1.9-12.6,5.7-17.8c3.7-5.1,8.8-9,14.8-11.2l-0.2-0.6c-6.1,2.3-11.3,6.2-15,11.4
		c-3.8,5.4-5.9,11.7-5.9,18.2c0,8.4,3.4,16.4,9.5,22.4c0.6,0.6,1.2,1.1,1.8,1.6L38.9,55c6.1,5.1,13.9,8,22,8
		c7.9,0,15.5-2.8,21.6-7.7L81.6,54.2z"/>
	<g>
		<path class="st2" d="M35.1,10.9c-0.2-0.5-0.2-1-0.2-1.5C34.8,7,36.4,5,39.2,5c0.6,0,1.2,0.1,1.6,0.2c0.5-0.4,1-0.8,1.5-1.1
			c-0.9-0.5-2-0.8-3.2-0.8c-3.4,0-6.2,2.7-6.2,6.1c0,1.2,0.4,2.3,0.9,3.2c0.2-0.2,0.3-0.5,0.5-0.6C34.5,11.6,34.8,11.2,35.1,10.9"/>
		<path class="st2" d="M43.4,4.9c-0.5,0.3-1,0.6-1.5,1c1,0.8,1.5,2.1,1.5,3.5c0,2.3-1.7,4.3-4.3,4.3c-1.5,0-2.6-0.6-3.4-1.6
			c-0.2,0.2-0.3,0.4-0.5,0.6c-0.2,0.3-0.5,0.6-0.6,0.9c1.2,1.1,2.7,1.8,4.5,1.8c3.5,0,6.2-2.6,6.2-6C45.4,7.6,44.6,6,43.4,4.9"/>
		<path class="st2" d="M32.4,25c0,1.8-1.1,3.5-2.7,4.1v1v0.8c2.6-0.7,4.6-3,4.6-5.9c0-2.1-1.2-3.9-2.8-5.1c-0.2,0.6-0.4,1.2-0.6,1.7
			C31.8,22.5,32.4,23.7,32.4,25"/>
		<path class="st2" d="M28.5,29.4h-0.4c-2.6,0-4.4-2-4.4-4.4c0-2.2,1.5-4.3,4.4-4.3c0.6,0,1.2,0.1,1.7,0.3c0.2-0.5,0.3-1.1,0.5-1.6
			c-0.7-0.2-1.5-0.4-2.2-0.4c-3.5,0-6.2,2.7-6.2,6c0,3.5,2.8,6.1,6.2,6.1h0.4c0-0.3-0.1-0.7-0.1-1C28.4,29.8,28.5,29.6,28.5,29.4"/>
		<path class="st2" d="M32.5,36.5c2.8,0,4.3,2.1,4.3,4.3c0,2-1.2,3.8-3.2,4.2c0.3,0.5,0.6,1,0.9,1.5c2.4-0.8,4.2-3,4.2-5.8
			c0-3.3-2.8-6-6.2-6c-0.8,0-1.7,0.2-2.4,0.5c0.1,0.5,0.2,1.2,0.3,1.7C31.1,36.7,31.8,36.5,32.5,36.5"/>
		<path class="st2" d="M28.2,40.8c0-1.2,0.4-2.2,1.2-3.1c-0.2-0.6-0.3-1.2-0.4-1.8c-1.6,1.1-2.7,2.9-2.7,4.9c0,3.5,2.8,6.1,6.2,6.1
			c0.2,0,0.5,0,0.8-0.1c-0.3-0.5-0.7-1.1-1-1.6C29.8,45,28.2,43.2,28.2,40.8"/>
		<path class="st2" d="M62.8,35.1v7c0,1.6-0.5,3.1-2.6,3.1c-2.1,0-2.6-1.5-2.6-3.1v-7h-1.9v7.4c0,2.5,1.6,4.5,4.5,4.5
			s4.5-1.9,4.5-4.5v-7.4H62.8z"/>
		<path class="st2" d="M64.3,13.5h5.2v1.6h-7.2V3.5h1.9V13.5z"/>
		<path class="st2" d="M0,19.3h6.8v1.7H1.9v2.8h4.8v1.7H1.9v3.8h4.8v1.7H0V19.3z"/>
		<path class="st2" d="M38.2,18.6l8,8.2v-7.6h1.9v12l-8-8.1v7.6h-1.9V18.6z"/>
		<defs>
			<filter id="Adobe_OpacityMaskFilter_1_" filterUnits="userSpaceOnUse" x="85.9" y="19.3" width="1.9" height="11.6">
				<feColorMatrix  type="matrix" values="1 0 0 0 0  0 1 0 0 0  0 0 1 0 0  0 0 0 1 0"/>
			</filter>
		</defs>
		<mask maskUnits="userSpaceOnUse" x="85.9" y="19.3" width="1.9" height="11.6" id="b_1_">
			<path class="st3" d="M0,0.4h101.5V63H0V0.4z"/>
		</mask>
		<path class="st4" d="M85.9,19.3h1.9v11.6h-1.9V19.3z"/>
		<defs>
			<filter id="Adobe_OpacityMaskFilter_2_" filterUnits="userSpaceOnUse" x="16.8" y="35.1" width="6.2" height="11.6">
				<feColorMatrix  type="matrix" values="1 0 0 0 0  0 1 0 0 0  0 0 1 0 0  0 0 0 1 0"/>
			</filter>
		</defs>
		<mask maskUnits="userSpaceOnUse" x="16.8" y="35.1" width="6.2" height="11.6" id="b_2_">
			<path class="st5" d="M0,0.4h101.5V63H0V0.4z"/>
		</mask>
		<path class="st6" d="M18.7,36.8v2.8h4.2v1.6h-4.2v5.5h-1.9V35.1H23v1.7H18.7z"/>
		<defs>
			<filter id="Adobe_OpacityMaskFilter_3_" filterUnits="userSpaceOnUse" x="15.5" y="3.3" width="14.7" height="12.3">
				<feColorMatrix  type="matrix" values="1 0 0 0 0  0 1 0 0 0  0 0 1 0 0  0 0 0 1 0"/>
			</filter>
		</defs>
		<mask maskUnits="userSpaceOnUse" x="15.5" y="3.3" width="14.7" height="12.3" id="b_3_">
			<path class="st7" d="M0,0.4h101.5V63H0V0.4z"/>
		</mask>
		<path class="st8" d="M26.4,10.7L26.4,10.7l1.9-7.2h1.8l-3.2,12.1l-4.1-8.7l-4.1,8.7L15.5,3.5h1.9l1.8,7.2l3.6-7.4L26.4,10.7z"/>
		<defs>
			<filter id="Adobe_OpacityMaskFilter_4_" filterUnits="userSpaceOnUse" x="67.1" y="18.8" width="14.7" height="12.4">
				<feColorMatrix  type="matrix" values="1 0 0 0 0  0 1 0 0 0  0 0 1 0 0  0 0 0 1 0"/>
			</filter>
		</defs>
		<mask maskUnits="userSpaceOnUse" x="67.1" y="18.8" width="14.7" height="12.4" id="b_4_">
			<path class="st9" d="M0,0.4h101.5V63H0V0.4z"/>
		</mask>
		<path class="st10" d="M70.8,23.6L70.8,23.6l-1.9,7.2h-1.8l3.2-12l4.1,8.7l4.1-8.7l3.3,12h-1.9L78,23.6h-0.1l-3.5,7.5L70.8,23.6z"
			/>
		<defs>
			<filter id="Adobe_OpacityMaskFilter_5_" filterUnits="userSpaceOnUse" x="68.1" y="34.6" width="14.7" height="12.3">
				<feColorMatrix  type="matrix" values="1 0 0 0 0  0 1 0 0 0  0 0 1 0 0  0 0 0 1 0"/>
			</filter>
		</defs>
		<mask maskUnits="userSpaceOnUse" x="68.1" y="34.6" width="14.7" height="12.3" id="b_5_">
			<path class="st11" d="M0,0.4h101.5V63H0V0.4z"/>
		</mask>
		<path class="st12" d="M71.8,39.4L70,46.7h-1.9l3.2-12.1l4.2,8.7l4.1-8.7l3.2,12.1h-1.9L79,39.4l-3.5,7.4L71.8,39.4z"/>
		<defs>
			<filter id="Adobe_OpacityMaskFilter_6_" filterUnits="userSpaceOnUse" x="42.8" y="35.1" width="8.8" height="11.6">
				<feColorMatrix  type="matrix" values="1 0 0 0 0  0 1 0 0 0  0 0 1 0 0  0 0 0 1 0"/>
			</filter>
		</defs>
		<mask maskUnits="userSpaceOnUse" x="42.8" y="35.1" width="8.8" height="11.6" id="b_6_">
			<path class="st13" d="M0,0.4h101.5V63H0V0.4z"/>
		</mask>
		<path class="st14" d="M46,35.1c1.1,0,2.3,0,3.2,0.5c1,0.5,1.6,1.7,1.6,2.8c0,1.7-1.2,3.1-2.8,3.2l3.7,5.1h-2.2l-3.5-4.9h-1.3v4.9
			h-1.9V35.1L46,35.1z M44.8,40.2h0.8c1.5,0,3.4,0.1,3.4-1.8c0-1.8-1.9-1.8-3.5-1.8h-0.8L44.8,40.2z"/>
		<defs>
			<filter id="Adobe_OpacityMaskFilter_7_" filterUnits="userSpaceOnUse" x="49.4" y="3.5" width="8.8" height="11.6">
				<feColorMatrix  type="matrix" values="1 0 0 0 0  0 1 0 0 0  0 0 1 0 0  0 0 0 1 0"/>
			</filter>
		</defs>
		<mask maskUnits="userSpaceOnUse" x="49.4" y="3.5" width="8.8" height="11.6" id="b_7_">
			<path class="st15" d="M0,0.4h101.5V63H0V0.4z"/>
		</mask>
		<path class="st16" d="M52.5,3.5c1.1,0,2.3,0,3.2,0.5c1,0.5,1.5,1.7,1.5,2.8c0,1.7-1.1,3.1-2.8,3.2l3.8,5.1h-2.2l-3.5-4.9h-1.2v4.9
			h-1.9V3.5L52.5,3.5z M51.3,8.7h0.8c1.5,0,3.3,0.1,3.3-1.8s-1.9-1.8-3.4-1.8h-0.8V8.7z"/>
		<defs>
			<filter id="Adobe_OpacityMaskFilter_8_" filterUnits="userSpaceOnUse" x="72.9" y="3.5" width="9.8" height="11.6">
				<feColorMatrix  type="matrix" values="1 0 0 0 0  0 1 0 0 0  0 0 1 0 0  0 0 0 1 0"/>
			</filter>
		</defs>
		<mask maskUnits="userSpaceOnUse" x="72.9" y="3.5" width="9.8" height="11.6" id="b_8_">
			<path class="st17" d="M0,0.4h101.5V63H0V0.4z"/>
		</mask>
		<path class="st18" d="M74.8,13.5h1.1c2.5,0,4.9-0.9,4.9-4.2c0-3.4-2.4-4.1-4.9-4.1h-1.1V13.5z M72.9,3.5h3.2
			c3.7,0,6.7,1.8,6.7,5.8s-2.9,5.8-6.7,5.8h-3.2V3.5z"/>
		<defs>
			<filter id="Adobe_OpacityMaskFilter_9_" filterUnits="userSpaceOnUse" x="92.2" y="19" width="9.4" height="12.1">
				<feColorMatrix  type="matrix" values="1 0 0 0 0  0 1 0 0 0  0 0 1 0 0  0 0 0 1 0"/>
			</filter>
		</defs>
		<mask maskUnits="userSpaceOnUse" x="92.2" y="19" width="9.4" height="12.1" id="b_9_">
			<path class="st19" d="M0,0.4h101.5V63H0V0.4z"/>
		</mask>
		<path class="st20" d="M100.5,28.8c-0.6,0.4-1.3,0.5-2.2,0.5c-2.5,0-4.3-1.9-4.3-4.3c0-2.3,1.5-4.4,4.3-4.4c0.8,0,1.5,0.2,2.2,0.5
			l0.9-1.4c-0.8-0.5-1.9-0.8-3.1-0.8c-3.4,0-6.2,2.7-6.2,6.1c0,3.4,2.8,6,6.2,6c1.2,0,2.2-0.2,3.2-0.8L100.5,28.8z"/>
		<defs>
			<filter id="Adobe_OpacityMaskFilter_10_" filterUnits="userSpaceOnUse" x="10.5" y="19" width="9.3" height="12.1">
				<feColorMatrix  type="matrix" values="1 0 0 0 0  0 1 0 0 0  0 0 1 0 0  0 0 0 1 0"/>
			</filter>
		</defs>
		<mask maskUnits="userSpaceOnUse" x="10.5" y="19" width="9.3" height="12.1" id="b_10_">
			<path class="st21" d="M0,0.4h101.5V63H0V0.4z"/>
		</mask>
		<path class="st22" d="M18.8,28.8c-0.6,0.4-1.3,0.5-2.1,0.5c-2.6,0-4.4-1.9-4.4-4.3c0-2.3,1.5-4.4,4.4-4.4c0.8,0,1.5,0.2,2.1,0.5
			l1-1.4c-0.9-0.5-2-0.8-3.1-0.8c-3.5,0-6.2,2.7-6.2,6.1c0,3.4,2.8,6,6.2,6c1.1,0,2.2-0.2,3.1-0.8L18.8,28.8z"/>
		<defs>
			<filter id="Adobe_OpacityMaskFilter_11_" filterUnits="userSpaceOnUse" x="52.2" y="19" width="12.5" height="12.1">
				<feColorMatrix  type="matrix" values="1 0 0 0 0  0 1 0 0 0  0 0 1 0 0  0 0 0 1 0"/>
			</filter>
		</defs>
		<mask maskUnits="userSpaceOnUse" x="52.2" y="19" width="12.5" height="12.1" id="b_11_">
			<path class="st23" d="M0,0.4h101.5V63H0V0.4z"/>
		</mask>
		<path class="st24" d="M62.7,25.1c0-2.3-1.5-4.4-4.3-4.4c-2.8,0-4.4,2.1-4.4,4.4c0,2.4,1.8,4.3,4.4,4.3
			C60.9,29.4,62.7,27.5,62.7,25.1 M64.6,25.1c0,3.4-2.8,6-6.2,6c-3.5,0-6.2-2.6-6.2-6s2.8-6.1,6.2-6.1C61.8,19,64.6,21.7,64.6,25.1"
			/>
	</g>
</g>
</svg>
